<?xml version="1.0" encoding="utf-8"?>
<svg version="1.1" xmlns:xlink="http://www.w3.org/1999/xlink" width="1305px" height="844px" xmlns="http://www.w3.org/2000/svg">
  <g transform="matrix(1 0 0 1 -72 -342 )">
    <path d="M 72 342  L 1377 342  L 1377 1186  L 72 1186  L 72 342  " fill-rule="nonzero" fill="#cccccc" stroke="none" />
    <path d="M 131 401  L 1318 401  L 1318 1127  L 131 1127  L 131 401  " fill-rule="nonzero" fill="#ffffff" stroke="none" />
    <path d="M 813.9000000000001 595.2  C 778.452 595.2  750.6 567.3480000000001  750.6 531.9000000000001  C 750.6 496.45200000000006  778.452 468.6  813.9000000000001 468.6  C 849.3480000000001 468.6  877.2 496.45200000000006  877.2 531.9000000000001  C 877.2 567.3480000000001  849.3480000000001 595.2  813.9000000000001 595.2  " fill-rule="nonzero" fill="#cccccc" stroke="none" />
    <path d="M 152 1106  L 152 729.8  L 438.25 558.8  L 839 840.576551724138  L 1068 661.4  L 1297 840.576551724138  L 1297 1106  L 152 1106  " fill-rule="nonzero" fill="#169bd5" stroke="none" />
  </g>
</svg>